<?xml version="1.0" encoding="UTF-8"?>
<svg viewBox="0 0 493.71 555.85" xmlns="http://www.w3.org/2000/svg" xmlns:xlink="http://www.w3.org/1999/xlink">
 <defs>
  <linearGradient id="u" x1="1.8289" x2=".1579" y1=".085924" y2=".92967" xlink:href="#o"/>
  <linearGradient id="v" x1=".21952" x2=".79271" y1=".86719" y2=".12501" xlink:href="#a"/>
  <linearGradient id="aa" x1=".2143" x2=".45239" y1=".91406" y2=".24219" xlink:href="#a"/>
  <linearGradient id="w" x1="-.56424" x2=".69058" y1=".021774" y2=".99064">
   <stop stop-color="#fff" offset="0"/>
   <stop stop-color="#fff" stop-opacity="0" offset="1"/>
  </linearGradient>
  <linearGradient id="y" x1="-.558" x2=".25904" y1=".125" y2="1.0078" xlink:href="#o"/>
  <linearGradient id="z" x1=".70836" x2=".50003" y1=".90624" y2=".46093" xlink:href="#a"/>
  <linearGradient id="x" x1=".080882" x2=".92082" y1=".5347" y2=".5347" xlink:href="#p"/>
  <linearGradient id="t" x1=".068144" x2=".8722" y1=".51377" y2=".51377" xlink:href="#p"/>
  <linearGradient id="a">
   <stop stop-color="#dc0000" offset="0"/>
   <stop stop-color="#ffb200" offset="1"/>
  </linearGradient>
  <linearGradient id="s" x1=".25836" x2=".52807" y1="1.2812" y2=".35937" xlink:href="#a"/>
  <linearGradient id="p">
   <stop stop-color="#fff" stop-opacity=".449" offset="0"/>
   <stop stop-color="#fff" stop-opacity="0" offset="1"/>
  </linearGradient>
  <linearGradient id="q" x1="-.48334" x2=".63333" y1="-.27342" y2=".92969" xlink:href="#o"/>
  <linearGradient id="r" x1=".07436" x2=".88622" y1=".51288" y2=".51288" xlink:href="#p"/>
  <linearGradient id="o">
   <stop stop-color="#fff" offset="0"/>
   <stop stop-color="#fff" stop-opacity="0" offset="1"/>
  </linearGradient>
 </defs>
 <g fill-rule="evenodd" stroke-opacity=".504" stroke-width="2.156">
  <path d="m187.06 150.49c25.216-29.036 18.74-40.988 14.622-60.98-8.7609-9.216 0.20705-22.273 7.3837-57.529-22.962 32.133-52.596 37.478-22.005 118.51z" fill="#ffd700" stroke="#ff0"/>
  <path d="m203.01 25.796c-14.683 19.201-36.949 36.918-35.782 63.53-0.15816 22.126 8.5625 42.77 15.082 63.53 13.312-15.195 27.474-34.492 21.55-55.904 0.040604-8.4718-5.8939-15.049-6.0649-23.05 3.244-18.887 9.956-37.131 12.608-56.188-2.4643 2.6943-4.9286 5.3886-7.3929 8.0829z" fill="url(#r)"/>
  <path d="m83.307 378.3c30.514 90.177 78.791 138 165.32 143.46 95.187 30.514 183.54-31.881 158.49-129.8-11.386 20.95-18.673 32.336-38.257 38.257 7.7425-54.197-41.9-63.306-17.762-121.6 16.851-35.98 26.871-80.157-2.7326-116.14-12.297 40.99-27.326 68.316-57.385 98.375 3.1881-50.098 29.604-90.632 13.663-138 2.2772-31.881-50.098-30.97-50.554-128.43-33.247 41.9-47.366 74.237-42.356 138-12.297 51.465-42.356 70.138-36.891 125.7-4.5544-30.97-7.7425-57.841-1.3663-80.613-3.6435-28.237-7.2871-52.376-35.524-72.415 8.6533 35.069 18.673 87.9-10.931 101.11-8.1979 16.851-49.188 74.692-4.0989 165.32-13.208-7.7425-26.416-10.02-39.623-23.227z" fill="url(#aa)" stroke="#ff0"/>
  <path d="m244.19 44.042c-23.646 31.047-33.674 70.695-30.66 109.36 2.2526 18.905-7.7986 36.506-14.954 53.394-13.158 25.174-25.06 52.667-21.462 81.754-1.0378 16.76-8.4838-0.13812-7.6997-8.5679-3.5659-23.713-5.091-48.304-0.22688-71.794-2.4517-22.859-8.242-47.638-27.118-62.66 5.6052 27.133 12.889 57.715-0.64073 83.638-4.8541 8.6849-15.712 11.06-17.982 21.489-22.778 39.903-24.495 89.651-7.201 131.9 3.599 9.6215 8.2934 18.806 12.368 28.236-12.692-7.2468-26.62-12.165-38.887-20.109 16.992 49.754 49.301 98.7 100.3 118.06 20.058 8.539 41.93 10.124 63.122 13.495 46.448 14.5 104.09 4.9725 134.73-35.447 18.005-23.384 23.007-54.942 16.878-83.444-8.1107 16.404-22.165 29.698-40.316 33.909 4.1763-21.06-2.182-42.134-13.062-60.148-11.745-19.221-14.507-43.518-5.1336-64.284 14.222-31.172 24.971-68.894 8.4084-101.34-5.1257-14.977-8.734-5.7832-11.331 4.8249-10.829 33.312-32.697 61.649-57.444 85.949 1.7136-33.984 13.571-66.139 18.61-99.546 2.8772-17.019-0.42807-34.096-3.991-50.577-2.4254-18.519-21.726-28.019-29.87-43.878-14.512-21.092-19.339-47.307-20.186-72.489-2.0865 2.76-4.1729 5.52-6.2593 8.2801z" fill="url(#w)"/>
  <g stroke="#ff0">
   <path d="m239.07 508.1c-72.415-76.514-84.712-129.8-36.891-180.35 53.742-95.642 40.534-155.76 1.3663-213.15 36.891 127.07-43.722 209.05-69.682 245.94-15.485-47.821-2.2772-68.316 19.128-127.07-41.9 45.544-67.405 100.65-51.92 153.03 28.237 78.791 94.731 96.098 138 121.6z" fill="url(#z)"/>
   <path d="m326.95 219.01c-9.7071-28.233-1.7857-34.279 6.7175-46.613 8.7715-3.4163 6.083-15.328 10.87-41.855 7.2473 29.609 26.703 43.071-17.587 88.468z" fill="#ffd700"/>
  </g>
  <path d="m337.86 125.9c-2.9515 12.586-1.6172 26.457-7.0972 38.197-12.84 9.8089-18.438 28.036-12.808 43.503 1.748 12.964 5.8029 15.201 12.991 3.3624 15.349-15.794 29.71-38.424 20.97-61.054-3.9433-11.543-7.3962-23.262-11.788-34.654-0.75571 3.5486-1.5114 7.0972-2.2672 10.646z" fill="url(#x)"/>
  <g stroke="#ff0">
   <path d="m389.36 391.96c25.049-24.138 20.039-34.614 17.762-51.92-7.287-8.1979 1.8218-19.128 10.93-49.188-23.227 26.871-50.554 30.514-28.693 101.11z" fill="#ffd700"/>
   <path d="m271.86 508.1c28.237-15.94 35.98-66.039 39.623-121.6 6.8316-53.742 20.495-107.48 110.67-116.14-36.891 29.604-66.95 66.039-53.286 133.9-3.6435 98.83-76.969 95.187-97.009 103.84z" fill="url(#v)"/>
  </g>
  <path d="m411.76 262.51c-38.453 5.4521-78.089 28.554-89.375 67.791-18.112 49.045-8.1034 104.86-32.806 151.98-9.3811 4.077-7.0877 21.566 4.4977 18.144 33.935-6.1528 66.142-29.728 74.74-64.326 8.292-24.026 3.5901-49.444 2.708-74.122 1.1283-35.791 21.852-68.066 49.057-90.148 4.7623-6.859-3.1804-9.1663-8.8222-9.3152z" fill="url(#u)"/>
  <path d="m412.23 281.24c-15.496 16.403-37.976 31.753-37.433 56.972-1.1453 18.069 5.289 35.296 9.2908 52.64 13.451-12.836 28.741-29.556 23.813-49.798-0.035065-8.9195-6.7574-16.722-1.48-25.412 5.0688-13.762 10.371-27.455 13.892-41.745-2.6943 2.4479-5.3886 4.8958-8.0829 7.3435z" fill="url(#t)"/>
  <path d="m222.67 471.21c-3.6436-43.722-8.6534-75.148 46.455-114.77 93.365-65.128 47.366-102.93-10.931-170.79 17.307 67.405-10.475 121.15-34.158 157.13-15.485 22.317-69.227 67.86-1.3663 128.43z" fill="url(#s)" stroke="#ff0"/>
  <path d="m256.79 174.35c10.102 45.951-0.30225 94.359-23.556 134.73-14.437 27.754-42.9 49.009-45.612 82.029-4.3506 28.774 16.382 52.758 35.595 71.352 7.8256 9.8399 1.118-13.422 2.1832-18.868-3.1223-28.308 1.7328-60.07 24.576-79.488 25.432-24.742 61.704-41.892 73.886-77.453 8.2396-31.406-13.716-59.556-32.866-81.857-11.549-14.014-23.725-27.452-35.832-40.99 0.54211 3.5157 1.0843 7.0315 1.6264 10.547z" fill="url(#q)"/>
  <path d="m210.9 133.58c0.99971 21.73 7.1777 43.247 4.3487 65.181-2.4955 51.205-24.994 99.359-56.055 139.44-5.762 8.1873-11.899 16.102-17.836 24.162-7.9396-26.453-4.3554-54.977 6.338-80.08 5.6312-13.413 9.5836-27.335 11.651-41.756-29.684 27.079-50.632 63.991-58.01 103.5-5.98 36.542 6.875 74.111 31.118 101.57 30.482 35.961 74.31 56.168 116.79 74.23-24.071-33.858-57.579-64.41-64.695-107.19-4.8812-24.839 4.8998-49.77 21.212-68.341 18.672-25.654 30.302-56.171 37.211-86.974 8.9723-40.117 1.7799-83.494-20.145-118.28-5.4102-3.955-15.078-24.737-11.927-5.4708z" fill="url(#y)"/>
 </g>
</svg>
